<mxfile host="app.diagrams.net" modified="2024-05-23T17:48:50.551Z" agent="Mozilla/5.0 (Windows NT 10.0; Win64; x64) AppleWebKit/537.36 (KHTML, like Gecko) Chrome/125.0.0.0 Safari/537.36" etag="54IEnKUjdEmODKkTjXQv" version="24.4.6" type="device">
  <diagram name="PÃ¡gina-1" id="mGuYYv_HyI5UxaZ_sUdc">
    <mxGraphModel dx="2577" dy="2109" grid="1" gridSize="10" guides="1" tooltips="1" connect="1" arrows="1" fold="1" page="1" pageScale="1" pageWidth="827" pageHeight="1169" math="0" shadow="0">
      <root>
        <mxCell id="0" />
        <mxCell id="1" parent="0" />
        <mxCell id="t3bxzwzpchBFD-Yzs4hy-23" style="rounded=0;orthogonalLoop=1;jettySize=auto;html=1;exitX=0;exitY=1;exitDx=0;exitDy=0;endArrow=none;endFill=0;" edge="1" parent="1" source="t3bxzwzpchBFD-Yzs4hy-1" target="t3bxzwzpchBFD-Yzs4hy-22">
          <mxGeometry relative="1" as="geometry" />
        </mxCell>
        <mxCell id="t3bxzwzpchBFD-Yzs4hy-1" value="USER" style="rounded=0;whiteSpace=wrap;html=1;" vertex="1" parent="1">
          <mxGeometry x="60" y="100" width="120" height="60" as="geometry" />
        </mxCell>
        <mxCell id="t3bxzwzpchBFD-Yzs4hy-5" style="edgeStyle=orthogonalEdgeStyle;rounded=0;orthogonalLoop=1;jettySize=auto;html=1;entryX=0;entryY=0.5;entryDx=0;entryDy=0;endArrow=none;endFill=0;" edge="1" parent="1" source="t3bxzwzpchBFD-Yzs4hy-2" target="t3bxzwzpchBFD-Yzs4hy-4">
          <mxGeometry relative="1" as="geometry" />
        </mxCell>
        <mxCell id="t3bxzwzpchBFD-Yzs4hy-2" value="CARTAS" style="rounded=0;whiteSpace=wrap;html=1;" vertex="1" parent="1">
          <mxGeometry x="330" y="450" width="120" height="60" as="geometry" />
        </mxCell>
        <mxCell id="t3bxzwzpchBFD-Yzs4hy-3" value="ATAQUES" style="rounded=0;whiteSpace=wrap;html=1;" vertex="1" parent="1">
          <mxGeometry x="890" y="450" width="120" height="60" as="geometry" />
        </mxCell>
        <mxCell id="t3bxzwzpchBFD-Yzs4hy-6" style="edgeStyle=orthogonalEdgeStyle;rounded=0;orthogonalLoop=1;jettySize=auto;html=1;entryX=0;entryY=0.5;entryDx=0;entryDy=0;endArrow=none;endFill=0;" edge="1" parent="1" source="t3bxzwzpchBFD-Yzs4hy-4" target="t3bxzwzpchBFD-Yzs4hy-3">
          <mxGeometry relative="1" as="geometry" />
        </mxCell>
        <mxCell id="t3bxzwzpchBFD-Yzs4hy-4" value="Te" style="rhombus;whiteSpace=wrap;html=1;" vertex="1" parent="1">
          <mxGeometry x="630" y="440" width="80" height="80" as="geometry" />
        </mxCell>
        <mxCell id="t3bxzwzpchBFD-Yzs4hy-176" style="edgeStyle=orthogonalEdgeStyle;rounded=0;orthogonalLoop=1;jettySize=auto;html=1;entryX=0.5;entryY=0;entryDx=0;entryDy=0;endArrow=none;endFill=0;" edge="1" parent="1" source="t3bxzwzpchBFD-Yzs4hy-7" target="t3bxzwzpchBFD-Yzs4hy-175">
          <mxGeometry relative="1" as="geometry" />
        </mxCell>
        <mxCell id="t3bxzwzpchBFD-Yzs4hy-7" value="MAZOS" style="rounded=0;whiteSpace=wrap;html=1;" vertex="1" parent="1">
          <mxGeometry x="60" y="-360" width="120" height="60" as="geometry" />
        </mxCell>
        <mxCell id="t3bxzwzpchBFD-Yzs4hy-171" style="edgeStyle=orthogonalEdgeStyle;rounded=0;orthogonalLoop=1;jettySize=auto;html=1;entryX=0.5;entryY=0;entryDx=0;entryDy=0;endArrow=none;endFill=0;" edge="1" parent="1" source="t3bxzwzpchBFD-Yzs4hy-8" target="t3bxzwzpchBFD-Yzs4hy-170">
          <mxGeometry relative="1" as="geometry" />
        </mxCell>
        <mxCell id="t3bxzwzpchBFD-Yzs4hy-8" value="MERCADO_CARTAS" style="rounded=0;whiteSpace=wrap;html=1;" vertex="1" parent="1">
          <mxGeometry x="-530" y="100" width="120" height="60" as="geometry" />
        </mxCell>
        <mxCell id="t3bxzwzpchBFD-Yzs4hy-9" value="TIENDA_SOBRES" style="rounded=0;whiteSpace=wrap;html=1;" vertex="1" parent="1">
          <mxGeometry x="-230" y="-60" width="120" height="60" as="geometry" />
        </mxCell>
        <mxCell id="t3bxzwzpchBFD-Yzs4hy-26" style="edgeStyle=orthogonalEdgeStyle;rounded=0;orthogonalLoop=1;jettySize=auto;html=1;entryX=0.5;entryY=0;entryDx=0;entryDy=0;endArrow=none;endFill=0;exitX=0.5;exitY=1;exitDx=0;exitDy=0;" edge="1" parent="1" source="t3bxzwzpchBFD-Yzs4hy-11" target="t3bxzwzpchBFD-Yzs4hy-25">
          <mxGeometry relative="1" as="geometry">
            <mxPoint x="-140" y="410" as="sourcePoint" />
          </mxGeometry>
        </mxCell>
        <mxCell id="t3bxzwzpchBFD-Yzs4hy-11" value="COMBATES" style="rounded=0;whiteSpace=wrap;html=1;" vertex="1" parent="1">
          <mxGeometry x="-310" y="310" width="120" height="60" as="geometry" />
        </mxCell>
        <mxCell id="t3bxzwzpchBFD-Yzs4hy-12" value="CARTAS_COMBATES" style="rounded=0;whiteSpace=wrap;html=1;" vertex="1" parent="1">
          <mxGeometry x="-130" y="540" width="120" height="60" as="geometry" />
        </mxCell>
        <mxCell id="t3bxzwzpchBFD-Yzs4hy-15" style="edgeStyle=orthogonalEdgeStyle;rounded=0;orthogonalLoop=1;jettySize=auto;html=1;entryX=1;entryY=0.5;entryDx=0;entryDy=0;endArrow=none;endFill=0;" edge="1" parent="1" source="t3bxzwzpchBFD-Yzs4hy-13" target="t3bxzwzpchBFD-Yzs4hy-8">
          <mxGeometry relative="1" as="geometry" />
        </mxCell>
        <mxCell id="t3bxzwzpchBFD-Yzs4hy-13" value="Posa a" style="rhombus;whiteSpace=wrap;html=1;" vertex="1" parent="1">
          <mxGeometry x="-140" y="90" width="80" height="80" as="geometry" />
        </mxCell>
        <mxCell id="t3bxzwzpchBFD-Yzs4hy-14" style="edgeStyle=orthogonalEdgeStyle;rounded=0;orthogonalLoop=1;jettySize=auto;html=1;entryX=1;entryY=0.5;entryDx=0;entryDy=0;endArrow=none;endFill=0;" edge="1" parent="1" source="t3bxzwzpchBFD-Yzs4hy-1" target="t3bxzwzpchBFD-Yzs4hy-13">
          <mxGeometry relative="1" as="geometry" />
        </mxCell>
        <mxCell id="t3bxzwzpchBFD-Yzs4hy-17" style="edgeStyle=orthogonalEdgeStyle;rounded=0;orthogonalLoop=1;jettySize=auto;html=1;entryX=0.5;entryY=1;entryDx=0;entryDy=0;endArrow=none;endFill=0;" edge="1" parent="1" source="t3bxzwzpchBFD-Yzs4hy-16" target="t3bxzwzpchBFD-Yzs4hy-1">
          <mxGeometry relative="1" as="geometry" />
        </mxCell>
        <mxCell id="t3bxzwzpchBFD-Yzs4hy-18" style="edgeStyle=orthogonalEdgeStyle;rounded=0;orthogonalLoop=1;jettySize=auto;html=1;entryX=0.5;entryY=0;entryDx=0;entryDy=0;endArrow=none;endFill=0;" edge="1" parent="1" source="t3bxzwzpchBFD-Yzs4hy-16" target="t3bxzwzpchBFD-Yzs4hy-2">
          <mxGeometry relative="1" as="geometry">
            <Array as="points">
              <mxPoint x="120" y="310" />
              <mxPoint x="390" y="310" />
            </Array>
          </mxGeometry>
        </mxCell>
        <mxCell id="t3bxzwzpchBFD-Yzs4hy-16" value="Te" style="rhombus;whiteSpace=wrap;html=1;" vertex="1" parent="1">
          <mxGeometry x="80" y="220" width="80" height="80" as="geometry" />
        </mxCell>
        <mxCell id="t3bxzwzpchBFD-Yzs4hy-20" style="edgeStyle=orthogonalEdgeStyle;rounded=0;orthogonalLoop=1;jettySize=auto;html=1;entryX=0.5;entryY=1;entryDx=0;entryDy=0;endArrow=none;endFill=0;" edge="1" parent="1" source="t3bxzwzpchBFD-Yzs4hy-19" target="t3bxzwzpchBFD-Yzs4hy-7">
          <mxGeometry relative="1" as="geometry" />
        </mxCell>
        <mxCell id="t3bxzwzpchBFD-Yzs4hy-21" style="edgeStyle=orthogonalEdgeStyle;rounded=0;orthogonalLoop=1;jettySize=auto;html=1;entryX=0.5;entryY=0;entryDx=0;entryDy=0;endArrow=none;endFill=0;" edge="1" parent="1" source="t3bxzwzpchBFD-Yzs4hy-19" target="t3bxzwzpchBFD-Yzs4hy-1">
          <mxGeometry relative="1" as="geometry" />
        </mxCell>
        <mxCell id="t3bxzwzpchBFD-Yzs4hy-19" value="Te" style="rhombus;whiteSpace=wrap;html=1;" vertex="1" parent="1">
          <mxGeometry x="80" y="-175" width="80" height="80" as="geometry" />
        </mxCell>
        <mxCell id="t3bxzwzpchBFD-Yzs4hy-24" style="rounded=0;orthogonalLoop=1;jettySize=auto;html=1;exitX=0;exitY=1;exitDx=0;exitDy=0;entryX=1;entryY=0;entryDx=0;entryDy=0;endArrow=none;endFill=0;" edge="1" parent="1" source="t3bxzwzpchBFD-Yzs4hy-22" target="t3bxzwzpchBFD-Yzs4hy-11">
          <mxGeometry relative="1" as="geometry" />
        </mxCell>
        <mxCell id="t3bxzwzpchBFD-Yzs4hy-22" value="Esta" style="rhombus;whiteSpace=wrap;html=1;" vertex="1" parent="1">
          <mxGeometry x="-150" y="200" width="80" height="80" as="geometry" />
        </mxCell>
        <mxCell id="t3bxzwzpchBFD-Yzs4hy-27" style="edgeStyle=orthogonalEdgeStyle;rounded=0;orthogonalLoop=1;jettySize=auto;html=1;exitX=0.5;exitY=1;exitDx=0;exitDy=0;entryX=0;entryY=0.5;entryDx=0;entryDy=0;endArrow=none;endFill=0;" edge="1" parent="1" source="t3bxzwzpchBFD-Yzs4hy-25" target="t3bxzwzpchBFD-Yzs4hy-12">
          <mxGeometry relative="1" as="geometry" />
        </mxCell>
        <mxCell id="t3bxzwzpchBFD-Yzs4hy-25" value="Hi ha" style="rhombus;whiteSpace=wrap;html=1;" vertex="1" parent="1">
          <mxGeometry x="-290" y="430" width="80" height="80" as="geometry" />
        </mxCell>
        <mxCell id="t3bxzwzpchBFD-Yzs4hy-28" value="N" style="text;html=1;align=center;verticalAlign=middle;whiteSpace=wrap;rounded=0;" vertex="1" parent="1">
          <mxGeometry x="380" y="420" width="60" height="30" as="geometry" />
        </mxCell>
        <mxCell id="t3bxzwzpchBFD-Yzs4hy-30" value="N" style="text;html=1;align=center;verticalAlign=middle;whiteSpace=wrap;rounded=0;" vertex="1" parent="1">
          <mxGeometry x="110" y="160" width="60" height="30" as="geometry" />
        </mxCell>
        <mxCell id="t3bxzwzpchBFD-Yzs4hy-31" value="1" style="text;html=1;align=center;verticalAlign=middle;whiteSpace=wrap;rounded=0;" vertex="1" parent="1">
          <mxGeometry x="440" y="480" width="60" height="30" as="geometry" />
        </mxCell>
        <mxCell id="t3bxzwzpchBFD-Yzs4hy-32" value="1" style="text;html=1;align=center;verticalAlign=middle;whiteSpace=wrap;rounded=0;" vertex="1" parent="1">
          <mxGeometry x="840" y="480" width="60" height="30" as="geometry" />
        </mxCell>
        <mxCell id="t3bxzwzpchBFD-Yzs4hy-33" value="1" style="text;html=1;align=center;verticalAlign=middle;whiteSpace=wrap;rounded=0;" vertex="1" parent="1">
          <mxGeometry x="-230" y="280" width="60" height="30" as="geometry" />
        </mxCell>
        <mxCell id="t3bxzwzpchBFD-Yzs4hy-34" value="N" style="text;html=1;align=center;verticalAlign=middle;whiteSpace=wrap;rounded=0;" vertex="1" parent="1">
          <mxGeometry y="140" width="60" height="30" as="geometry" />
        </mxCell>
        <mxCell id="t3bxzwzpchBFD-Yzs4hy-35" value="N" style="text;html=1;align=center;verticalAlign=middle;whiteSpace=wrap;rounded=0;" vertex="1" parent="1">
          <mxGeometry x="-170" y="540" width="60" height="30" as="geometry" />
        </mxCell>
        <mxCell id="t3bxzwzpchBFD-Yzs4hy-36" value="N" style="text;html=1;align=center;verticalAlign=middle;whiteSpace=wrap;rounded=0;" vertex="1" parent="1">
          <mxGeometry x="-260" y="370" width="60" height="30" as="geometry" />
        </mxCell>
        <mxCell id="t3bxzwzpchBFD-Yzs4hy-38" style="edgeStyle=orthogonalEdgeStyle;rounded=0;orthogonalLoop=1;jettySize=auto;html=1;entryX=0.5;entryY=1;entryDx=0;entryDy=0;endArrow=none;endFill=0;" edge="1" parent="1" source="t3bxzwzpchBFD-Yzs4hy-37" target="t3bxzwzpchBFD-Yzs4hy-2">
          <mxGeometry relative="1" as="geometry" />
        </mxCell>
        <mxCell id="t3bxzwzpchBFD-Yzs4hy-39" style="edgeStyle=orthogonalEdgeStyle;rounded=0;orthogonalLoop=1;jettySize=auto;html=1;endArrow=none;endFill=0;" edge="1" parent="1" source="t3bxzwzpchBFD-Yzs4hy-37" target="t3bxzwzpchBFD-Yzs4hy-12">
          <mxGeometry relative="1" as="geometry" />
        </mxCell>
        <mxCell id="t3bxzwzpchBFD-Yzs4hy-37" value="Informacio" style="rhombus;whiteSpace=wrap;html=1;" vertex="1" parent="1">
          <mxGeometry x="80" y="530" width="80" height="80" as="geometry" />
        </mxCell>
        <mxCell id="t3bxzwzpchBFD-Yzs4hy-40" value="N" style="text;html=1;align=center;verticalAlign=middle;whiteSpace=wrap;rounded=0;" vertex="1" parent="1">
          <mxGeometry x="-420" y="100" width="60" height="30" as="geometry" />
        </mxCell>
        <mxCell id="t3bxzwzpchBFD-Yzs4hy-41" value="N" style="text;html=1;align=center;verticalAlign=middle;whiteSpace=wrap;rounded=0;" vertex="1" parent="1">
          <mxGeometry x="10" y="100" width="60" height="30" as="geometry" />
        </mxCell>
        <mxCell id="t3bxzwzpchBFD-Yzs4hy-42" value="1" style="text;html=1;align=center;verticalAlign=middle;whiteSpace=wrap;rounded=0;" vertex="1" parent="1">
          <mxGeometry x="70" y="70" width="60" height="30" as="geometry" />
        </mxCell>
        <mxCell id="t3bxzwzpchBFD-Yzs4hy-43" value="N" style="text;html=1;align=center;verticalAlign=middle;whiteSpace=wrap;rounded=0;" vertex="1" parent="1">
          <mxGeometry x="70" y="-300" width="60" height="30" as="geometry" />
        </mxCell>
        <mxCell id="t3bxzwzpchBFD-Yzs4hy-44" value="N" style="text;html=1;align=center;verticalAlign=middle;whiteSpace=wrap;rounded=0;" vertex="1" parent="1">
          <mxGeometry x="-20" y="569.5" width="60" height="30" as="geometry" />
        </mxCell>
        <mxCell id="t3bxzwzpchBFD-Yzs4hy-45" value="1" style="text;html=1;align=center;verticalAlign=middle;whiteSpace=wrap;rounded=0;" vertex="1" parent="1">
          <mxGeometry x="340" y="505" width="60" height="30" as="geometry" />
        </mxCell>
        <mxCell id="t3bxzwzpchBFD-Yzs4hy-47" style="rounded=0;orthogonalLoop=1;jettySize=auto;html=1;exitX=1;exitY=1;exitDx=0;exitDy=0;entryX=0;entryY=0.25;entryDx=0;entryDy=0;endArrow=none;endFill=0;" edge="1" parent="1" source="t3bxzwzpchBFD-Yzs4hy-46" target="t3bxzwzpchBFD-Yzs4hy-9">
          <mxGeometry relative="1" as="geometry" />
        </mxCell>
        <mxCell id="t3bxzwzpchBFD-Yzs4hy-46" value="&lt;u&gt;id_tienda_sobres&lt;/u&gt;" style="ellipse;whiteSpace=wrap;html=1;" vertex="1" parent="1">
          <mxGeometry x="-380" y="-110" width="100" height="50" as="geometry" />
        </mxCell>
        <mxCell id="t3bxzwzpchBFD-Yzs4hy-52" style="rounded=0;orthogonalLoop=1;jettySize=auto;html=1;entryX=0.25;entryY=0;entryDx=0;entryDy=0;endArrow=none;endFill=0;" edge="1" parent="1" source="t3bxzwzpchBFD-Yzs4hy-48" target="t3bxzwzpchBFD-Yzs4hy-9">
          <mxGeometry relative="1" as="geometry" />
        </mxCell>
        <mxCell id="t3bxzwzpchBFD-Yzs4hy-48" value="precio" style="ellipse;whiteSpace=wrap;html=1;" vertex="1" parent="1">
          <mxGeometry x="-290" y="-160" width="100" height="50" as="geometry" />
        </mxCell>
        <mxCell id="t3bxzwzpchBFD-Yzs4hy-51" style="rounded=0;orthogonalLoop=1;jettySize=auto;html=1;entryX=0.75;entryY=0;entryDx=0;entryDy=0;endArrow=none;endFill=0;" edge="1" parent="1" source="t3bxzwzpchBFD-Yzs4hy-50" target="t3bxzwzpchBFD-Yzs4hy-9">
          <mxGeometry relative="1" as="geometry" />
        </mxCell>
        <mxCell id="t3bxzwzpchBFD-Yzs4hy-50" value="cantidad" style="ellipse;whiteSpace=wrap;html=1;" vertex="1" parent="1">
          <mxGeometry x="-170" y="-170" width="100" height="50" as="geometry" />
        </mxCell>
        <mxCell id="t3bxzwzpchBFD-Yzs4hy-54" style="rounded=0;orthogonalLoop=1;jettySize=auto;html=1;exitX=0;exitY=1;exitDx=0;exitDy=0;entryX=1;entryY=0;entryDx=0;entryDy=0;endArrow=none;endFill=0;" edge="1" parent="1" source="t3bxzwzpchBFD-Yzs4hy-53" target="t3bxzwzpchBFD-Yzs4hy-7">
          <mxGeometry relative="1" as="geometry" />
        </mxCell>
        <mxCell id="t3bxzwzpchBFD-Yzs4hy-53" value="nombre" style="ellipse;whiteSpace=wrap;html=1;" vertex="1" parent="1">
          <mxGeometry x="180" y="-490" width="100" height="50" as="geometry" />
        </mxCell>
        <mxCell id="t3bxzwzpchBFD-Yzs4hy-56" style="edgeStyle=orthogonalEdgeStyle;rounded=0;orthogonalLoop=1;jettySize=auto;html=1;entryX=0.5;entryY=0;entryDx=0;entryDy=0;endArrow=none;endFill=0;" edge="1" parent="1" source="t3bxzwzpchBFD-Yzs4hy-55" target="t3bxzwzpchBFD-Yzs4hy-7">
          <mxGeometry relative="1" as="geometry" />
        </mxCell>
        <mxCell id="t3bxzwzpchBFD-Yzs4hy-55" value="numero" style="ellipse;whiteSpace=wrap;html=1;" vertex="1" parent="1">
          <mxGeometry x="70" y="-540" width="100" height="50" as="geometry" />
        </mxCell>
        <mxCell id="t3bxzwzpchBFD-Yzs4hy-58" style="rounded=0;orthogonalLoop=1;jettySize=auto;html=1;entryX=0;entryY=0;entryDx=0;entryDy=0;endArrow=none;endFill=0;" edge="1" parent="1" source="t3bxzwzpchBFD-Yzs4hy-57" target="t3bxzwzpchBFD-Yzs4hy-7">
          <mxGeometry relative="1" as="geometry" />
        </mxCell>
        <mxCell id="t3bxzwzpchBFD-Yzs4hy-57" value="id_user" style="ellipse;whiteSpace=wrap;html=1;" vertex="1" parent="1">
          <mxGeometry x="-50" y="-470" width="100" height="50" as="geometry" />
        </mxCell>
        <mxCell id="t3bxzwzpchBFD-Yzs4hy-59" value="&lt;u&gt;id_mazo&lt;/u&gt;" style="ellipse;whiteSpace=wrap;html=1;" vertex="1" parent="1">
          <mxGeometry x="330" y="-520" width="100" height="50" as="geometry" />
        </mxCell>
        <mxCell id="t3bxzwzpchBFD-Yzs4hy-60" style="rounded=0;orthogonalLoop=1;jettySize=auto;html=1;exitX=0;exitY=0.5;exitDx=0;exitDy=0;entryX=1;entryY=0;entryDx=0;entryDy=0;endArrow=none;endFill=0;" edge="1" parent="1" source="t3bxzwzpchBFD-Yzs4hy-59" target="t3bxzwzpchBFD-Yzs4hy-7">
          <mxGeometry relative="1" as="geometry">
            <mxPoint x="205" y="-177" as="sourcePoint" />
            <mxPoint x="190" y="-120" as="targetPoint" />
          </mxGeometry>
        </mxCell>
        <mxCell id="t3bxzwzpchBFD-Yzs4hy-63" style="rounded=0;orthogonalLoop=1;jettySize=auto;html=1;entryX=0.75;entryY=0;entryDx=0;entryDy=0;endArrow=none;endFill=0;" edge="1" parent="1" source="t3bxzwzpchBFD-Yzs4hy-61" target="t3bxzwzpchBFD-Yzs4hy-1">
          <mxGeometry relative="1" as="geometry" />
        </mxCell>
        <mxCell id="t3bxzwzpchBFD-Yzs4hy-61" value="&lt;u&gt;id_user&lt;/u&gt;" style="ellipse;whiteSpace=wrap;html=1;" vertex="1" parent="1">
          <mxGeometry x="180" y="-30" width="100" height="50" as="geometry" />
        </mxCell>
        <mxCell id="t3bxzwzpchBFD-Yzs4hy-62" value="nombre" style="ellipse;whiteSpace=wrap;html=1;" vertex="1" parent="1">
          <mxGeometry x="270" y="-75" width="100" height="50" as="geometry" />
        </mxCell>
        <mxCell id="t3bxzwzpchBFD-Yzs4hy-64" value="apellidos" style="ellipse;whiteSpace=wrap;html=1;" vertex="1" parent="1">
          <mxGeometry x="414" y="-150" width="100" height="50" as="geometry" />
        </mxCell>
        <mxCell id="t3bxzwzpchBFD-Yzs4hy-65" value="email" style="ellipse;whiteSpace=wrap;html=1;" vertex="1" parent="1">
          <mxGeometry x="540" y="-190" width="100" height="50" as="geometry" />
        </mxCell>
        <mxCell id="t3bxzwzpchBFD-Yzs4hy-66" value="user" style="ellipse;whiteSpace=wrap;html=1;" vertex="1" parent="1">
          <mxGeometry x="660" y="-220" width="100" height="50" as="geometry" />
        </mxCell>
        <mxCell id="t3bxzwzpchBFD-Yzs4hy-67" value="password" style="ellipse;whiteSpace=wrap;html=1;" vertex="1" parent="1">
          <mxGeometry x="760" y="-190" width="100" height="50" as="geometry" />
        </mxCell>
        <mxCell id="t3bxzwzpchBFD-Yzs4hy-68" value="oro" style="ellipse;whiteSpace=wrap;html=1;" vertex="1" parent="1">
          <mxGeometry x="880" y="-200" width="100" height="50" as="geometry" />
        </mxCell>
        <mxCell id="t3bxzwzpchBFD-Yzs4hy-69" value="foto_perfil" style="ellipse;whiteSpace=wrap;html=1;" vertex="1" parent="1">
          <mxGeometry x="830" y="-130" width="100" height="50" as="geometry" />
        </mxCell>
        <mxCell id="t3bxzwzpchBFD-Yzs4hy-70" value="first_log" style="ellipse;whiteSpace=wrap;html=1;" vertex="1" parent="1">
          <mxGeometry x="1000" y="-5" width="100" height="50" as="geometry" />
        </mxCell>
        <mxCell id="t3bxzwzpchBFD-Yzs4hy-71" value="mazo_seleccionado" style="ellipse;whiteSpace=wrap;html=1;" vertex="1" parent="1">
          <mxGeometry x="940" y="-140" width="120" height="50" as="geometry" />
        </mxCell>
        <mxCell id="t3bxzwzpchBFD-Yzs4hy-72" value="sobres" style="ellipse;whiteSpace=wrap;html=1;" vertex="1" parent="1">
          <mxGeometry x="980" y="-70" width="100" height="50" as="geometry" />
        </mxCell>
        <mxCell id="t3bxzwzpchBFD-Yzs4hy-73" value="sobres_iniciales" style="ellipse;whiteSpace=wrap;html=1;" vertex="1" parent="1">
          <mxGeometry x="890" y="-20" width="100" height="50" as="geometry" />
        </mxCell>
        <mxCell id="t3bxzwzpchBFD-Yzs4hy-74" value="searching" style="ellipse;whiteSpace=wrap;html=1;" vertex="1" parent="1">
          <mxGeometry x="920" y="70" width="100" height="50" as="geometry" />
        </mxCell>
        <mxCell id="t3bxzwzpchBFD-Yzs4hy-75" value="fighting" style="ellipse;whiteSpace=wrap;html=1;" vertex="1" parent="1">
          <mxGeometry x="810" y="110" width="100" height="50" as="geometry" />
        </mxCell>
        <mxCell id="t3bxzwzpchBFD-Yzs4hy-76" style="rounded=0;orthogonalLoop=1;jettySize=auto;html=1;entryX=0.75;entryY=0;entryDx=0;entryDy=0;endArrow=none;endFill=0;exitX=0.5;exitY=1;exitDx=0;exitDy=0;" edge="1" parent="1" source="t3bxzwzpchBFD-Yzs4hy-62" target="t3bxzwzpchBFD-Yzs4hy-1">
          <mxGeometry relative="1" as="geometry">
            <mxPoint x="234" y="51" as="sourcePoint" />
            <mxPoint x="160" y="110" as="targetPoint" />
          </mxGeometry>
        </mxCell>
        <mxCell id="t3bxzwzpchBFD-Yzs4hy-77" style="rounded=0;orthogonalLoop=1;jettySize=auto;html=1;entryX=1;entryY=0;entryDx=0;entryDy=0;endArrow=none;endFill=0;exitX=0.5;exitY=1;exitDx=0;exitDy=0;" edge="1" parent="1" source="t3bxzwzpchBFD-Yzs4hy-64" target="t3bxzwzpchBFD-Yzs4hy-1">
          <mxGeometry relative="1" as="geometry">
            <mxPoint x="374" y="40" as="sourcePoint" />
            <mxPoint x="178" y="108" as="targetPoint" />
          </mxGeometry>
        </mxCell>
        <mxCell id="t3bxzwzpchBFD-Yzs4hy-78" style="rounded=0;orthogonalLoop=1;jettySize=auto;html=1;entryX=1;entryY=0;entryDx=0;entryDy=0;endArrow=none;endFill=0;exitX=0.5;exitY=1;exitDx=0;exitDy=0;" edge="1" parent="1" source="t3bxzwzpchBFD-Yzs4hy-65" target="t3bxzwzpchBFD-Yzs4hy-1">
          <mxGeometry relative="1" as="geometry">
            <mxPoint x="430" y="35" as="sourcePoint" />
            <mxPoint x="190" y="110" as="targetPoint" />
          </mxGeometry>
        </mxCell>
        <mxCell id="t3bxzwzpchBFD-Yzs4hy-79" style="rounded=0;orthogonalLoop=1;jettySize=auto;html=1;entryX=1;entryY=0;entryDx=0;entryDy=0;endArrow=none;endFill=0;exitX=0.5;exitY=1;exitDx=0;exitDy=0;" edge="1" parent="1" source="t3bxzwzpchBFD-Yzs4hy-66" target="t3bxzwzpchBFD-Yzs4hy-1">
          <mxGeometry relative="1" as="geometry">
            <mxPoint x="510" y="75" as="sourcePoint" />
            <mxPoint x="190" y="110" as="targetPoint" />
          </mxGeometry>
        </mxCell>
        <mxCell id="t3bxzwzpchBFD-Yzs4hy-80" style="rounded=0;orthogonalLoop=1;jettySize=auto;html=1;entryX=1;entryY=0.25;entryDx=0;entryDy=0;endArrow=none;endFill=0;exitX=0;exitY=0.5;exitDx=0;exitDy=0;" edge="1" parent="1" source="t3bxzwzpchBFD-Yzs4hy-67" target="t3bxzwzpchBFD-Yzs4hy-1">
          <mxGeometry relative="1" as="geometry">
            <mxPoint x="510" y="135" as="sourcePoint" />
            <mxPoint x="190" y="110" as="targetPoint" />
          </mxGeometry>
        </mxCell>
        <mxCell id="t3bxzwzpchBFD-Yzs4hy-81" style="rounded=0;orthogonalLoop=1;jettySize=auto;html=1;entryX=1;entryY=0.25;entryDx=0;entryDy=0;endArrow=none;endFill=0;exitX=0;exitY=1;exitDx=0;exitDy=0;" edge="1" parent="1" source="t3bxzwzpchBFD-Yzs4hy-68" target="t3bxzwzpchBFD-Yzs4hy-1">
          <mxGeometry relative="1" as="geometry">
            <mxPoint x="590" y="185" as="sourcePoint" />
            <mxPoint x="190" y="125" as="targetPoint" />
          </mxGeometry>
        </mxCell>
        <mxCell id="t3bxzwzpchBFD-Yzs4hy-82" style="rounded=0;orthogonalLoop=1;jettySize=auto;html=1;entryX=1;entryY=0.5;entryDx=0;entryDy=0;endArrow=none;endFill=0;exitX=0;exitY=1;exitDx=0;exitDy=0;" edge="1" parent="1" source="t3bxzwzpchBFD-Yzs4hy-69" target="t3bxzwzpchBFD-Yzs4hy-1">
          <mxGeometry relative="1" as="geometry">
            <mxPoint x="605" y="227" as="sourcePoint" />
            <mxPoint x="190" y="125" as="targetPoint" />
          </mxGeometry>
        </mxCell>
        <mxCell id="t3bxzwzpchBFD-Yzs4hy-83" style="rounded=0;orthogonalLoop=1;jettySize=auto;html=1;entryX=1;entryY=0.5;entryDx=0;entryDy=0;endArrow=none;endFill=0;exitX=0.5;exitY=1;exitDx=0;exitDy=0;" edge="1" parent="1" source="t3bxzwzpchBFD-Yzs4hy-71" target="t3bxzwzpchBFD-Yzs4hy-1">
          <mxGeometry relative="1" as="geometry">
            <mxPoint x="495" y="227" as="sourcePoint" />
            <mxPoint x="190" y="140" as="targetPoint" />
          </mxGeometry>
        </mxCell>
        <mxCell id="t3bxzwzpchBFD-Yzs4hy-84" style="rounded=0;orthogonalLoop=1;jettySize=auto;html=1;entryX=1;entryY=0.75;entryDx=0;entryDy=0;endArrow=none;endFill=0;exitX=0;exitY=0;exitDx=0;exitDy=0;" edge="1" parent="1" source="t3bxzwzpchBFD-Yzs4hy-72" target="t3bxzwzpchBFD-Yzs4hy-1">
          <mxGeometry relative="1" as="geometry">
            <mxPoint x="597" y="232" as="sourcePoint" />
            <mxPoint x="190" y="140" as="targetPoint" />
          </mxGeometry>
        </mxCell>
        <mxCell id="t3bxzwzpchBFD-Yzs4hy-85" style="rounded=0;orthogonalLoop=1;jettySize=auto;html=1;entryX=1;entryY=0.75;entryDx=0;entryDy=0;endArrow=none;endFill=0;exitX=0;exitY=0.5;exitDx=0;exitDy=0;" edge="1" parent="1" source="t3bxzwzpchBFD-Yzs4hy-73" target="t3bxzwzpchBFD-Yzs4hy-1">
          <mxGeometry relative="1" as="geometry">
            <mxPoint x="475" y="237" as="sourcePoint" />
            <mxPoint x="190" y="155" as="targetPoint" />
          </mxGeometry>
        </mxCell>
        <mxCell id="t3bxzwzpchBFD-Yzs4hy-86" style="rounded=0;orthogonalLoop=1;jettySize=auto;html=1;entryX=1;entryY=1;entryDx=0;entryDy=0;endArrow=none;endFill=0;exitX=0;exitY=1;exitDx=0;exitDy=0;" edge="1" parent="1" source="t3bxzwzpchBFD-Yzs4hy-70" target="t3bxzwzpchBFD-Yzs4hy-1">
          <mxGeometry relative="1" as="geometry">
            <mxPoint x="480" y="305" as="sourcePoint" />
            <mxPoint x="190" y="155" as="targetPoint" />
          </mxGeometry>
        </mxCell>
        <mxCell id="t3bxzwzpchBFD-Yzs4hy-87" style="rounded=0;orthogonalLoop=1;jettySize=auto;html=1;entryX=1;entryY=1;entryDx=0;entryDy=0;endArrow=none;endFill=0;exitX=0.5;exitY=0;exitDx=0;exitDy=0;" edge="1" parent="1" source="t3bxzwzpchBFD-Yzs4hy-74" target="t3bxzwzpchBFD-Yzs4hy-1">
          <mxGeometry relative="1" as="geometry">
            <mxPoint x="395" y="317" as="sourcePoint" />
            <mxPoint x="190" y="170" as="targetPoint" />
          </mxGeometry>
        </mxCell>
        <mxCell id="t3bxzwzpchBFD-Yzs4hy-88" style="rounded=0;orthogonalLoop=1;jettySize=auto;html=1;entryX=1;entryY=1;entryDx=0;entryDy=0;endArrow=none;endFill=0;exitX=0;exitY=0;exitDx=0;exitDy=0;" edge="1" parent="1" source="t3bxzwzpchBFD-Yzs4hy-75" target="t3bxzwzpchBFD-Yzs4hy-1">
          <mxGeometry relative="1" as="geometry">
            <mxPoint x="520" y="245" as="sourcePoint" />
            <mxPoint x="190" y="170" as="targetPoint" />
          </mxGeometry>
        </mxCell>
        <mxCell id="t3bxzwzpchBFD-Yzs4hy-98" style="rounded=0;orthogonalLoop=1;jettySize=auto;html=1;entryX=0.5;entryY=0;entryDx=0;entryDy=0;endArrow=none;endFill=0;" edge="1" parent="1" source="t3bxzwzpchBFD-Yzs4hy-89" target="t3bxzwzpchBFD-Yzs4hy-3">
          <mxGeometry relative="1" as="geometry" />
        </mxCell>
        <mxCell id="t3bxzwzpchBFD-Yzs4hy-89" value="nombre" style="ellipse;whiteSpace=wrap;html=1;" vertex="1" parent="1">
          <mxGeometry x="900" y="300" width="120" height="50" as="geometry" />
        </mxCell>
        <mxCell id="t3bxzwzpchBFD-Yzs4hy-90" value="tipo" style="ellipse;whiteSpace=wrap;html=1;" vertex="1" parent="1">
          <mxGeometry x="1040" y="310" width="120" height="50" as="geometry" />
        </mxCell>
        <mxCell id="t3bxzwzpchBFD-Yzs4hy-91" value="cambio" style="ellipse;whiteSpace=wrap;html=1;" vertex="1" parent="1">
          <mxGeometry x="1140" y="370" width="120" height="50" as="geometry" />
        </mxCell>
        <mxCell id="t3bxzwzpchBFD-Yzs4hy-92" value="estadistica" style="ellipse;whiteSpace=wrap;html=1;" vertex="1" parent="1">
          <mxGeometry x="1140" y="455" width="120" height="50" as="geometry" />
        </mxCell>
        <mxCell id="t3bxzwzpchBFD-Yzs4hy-93" value="duracion" style="ellipse;whiteSpace=wrap;html=1;" vertex="1" parent="1">
          <mxGeometry x="1121" y="535" width="120" height="50" as="geometry" />
        </mxCell>
        <mxCell id="t3bxzwzpchBFD-Yzs4hy-94" value="descripcion" style="ellipse;whiteSpace=wrap;html=1;" vertex="1" parent="1">
          <mxGeometry x="1010" y="585" width="120" height="50" as="geometry" />
        </mxCell>
        <mxCell id="t3bxzwzpchBFD-Yzs4hy-96" style="rounded=0;orthogonalLoop=1;jettySize=auto;html=1;exitX=1;exitY=1;exitDx=0;exitDy=0;entryX=0.25;entryY=0;entryDx=0;entryDy=0;endArrow=none;endFill=0;" edge="1" parent="1" source="t3bxzwzpchBFD-Yzs4hy-95" target="t3bxzwzpchBFD-Yzs4hy-3">
          <mxGeometry relative="1" as="geometry" />
        </mxCell>
        <mxCell id="t3bxzwzpchBFD-Yzs4hy-95" value="&lt;u&gt;id_ataque&lt;/u&gt;" style="ellipse;whiteSpace=wrap;html=1;" vertex="1" parent="1">
          <mxGeometry x="740" y="335" width="120" height="50" as="geometry" />
        </mxCell>
        <mxCell id="t3bxzwzpchBFD-Yzs4hy-99" style="rounded=0;orthogonalLoop=1;jettySize=auto;html=1;entryX=0.75;entryY=0;entryDx=0;entryDy=0;endArrow=none;endFill=0;exitX=0;exitY=1;exitDx=0;exitDy=0;" edge="1" parent="1" source="t3bxzwzpchBFD-Yzs4hy-90" target="t3bxzwzpchBFD-Yzs4hy-3">
          <mxGeometry relative="1" as="geometry">
            <mxPoint x="968" y="360" as="sourcePoint" />
            <mxPoint x="960" y="460" as="targetPoint" />
          </mxGeometry>
        </mxCell>
        <mxCell id="t3bxzwzpchBFD-Yzs4hy-100" style="rounded=0;orthogonalLoop=1;jettySize=auto;html=1;entryX=1;entryY=0;entryDx=0;entryDy=0;endArrow=none;endFill=0;exitX=0;exitY=0.5;exitDx=0;exitDy=0;" edge="1" parent="1" source="t3bxzwzpchBFD-Yzs4hy-91" target="t3bxzwzpchBFD-Yzs4hy-3">
          <mxGeometry relative="1" as="geometry">
            <mxPoint x="1067" y="363" as="sourcePoint" />
            <mxPoint x="990" y="460" as="targetPoint" />
          </mxGeometry>
        </mxCell>
        <mxCell id="t3bxzwzpchBFD-Yzs4hy-101" style="rounded=0;orthogonalLoop=1;jettySize=auto;html=1;entryX=1;entryY=0.5;entryDx=0;entryDy=0;endArrow=none;endFill=0;exitX=0;exitY=0.5;exitDx=0;exitDy=0;" edge="1" parent="1" source="t3bxzwzpchBFD-Yzs4hy-92" target="t3bxzwzpchBFD-Yzs4hy-3">
          <mxGeometry relative="1" as="geometry">
            <mxPoint x="1150" y="405" as="sourcePoint" />
            <mxPoint x="1020" y="460" as="targetPoint" />
          </mxGeometry>
        </mxCell>
        <mxCell id="t3bxzwzpchBFD-Yzs4hy-102" style="rounded=0;orthogonalLoop=1;jettySize=auto;html=1;entryX=1;entryY=1;entryDx=0;entryDy=0;endArrow=none;endFill=0;exitX=0;exitY=0;exitDx=0;exitDy=0;" edge="1" parent="1" source="t3bxzwzpchBFD-Yzs4hy-93" target="t3bxzwzpchBFD-Yzs4hy-3">
          <mxGeometry relative="1" as="geometry">
            <mxPoint x="1150" y="490" as="sourcePoint" />
            <mxPoint x="1020" y="490" as="targetPoint" />
          </mxGeometry>
        </mxCell>
        <mxCell id="t3bxzwzpchBFD-Yzs4hy-103" style="rounded=0;orthogonalLoop=1;jettySize=auto;html=1;entryX=0.75;entryY=1;entryDx=0;entryDy=0;endArrow=none;endFill=0;exitX=0.5;exitY=0;exitDx=0;exitDy=0;" edge="1" parent="1" source="t3bxzwzpchBFD-Yzs4hy-94" target="t3bxzwzpchBFD-Yzs4hy-3">
          <mxGeometry relative="1" as="geometry">
            <mxPoint x="1148" y="552" as="sourcePoint" />
            <mxPoint x="1020" y="520" as="targetPoint" />
          </mxGeometry>
        </mxCell>
        <mxCell id="t3bxzwzpchBFD-Yzs4hy-105" style="rounded=0;orthogonalLoop=1;jettySize=auto;html=1;entryX=0.75;entryY=0;entryDx=0;entryDy=0;endArrow=none;endFill=0;" edge="1" parent="1" source="t3bxzwzpchBFD-Yzs4hy-104" target="t3bxzwzpchBFD-Yzs4hy-2">
          <mxGeometry relative="1" as="geometry">
            <mxPoint x="520" y="400" as="targetPoint" />
          </mxGeometry>
        </mxCell>
        <mxCell id="t3bxzwzpchBFD-Yzs4hy-104" value="&lt;u&gt;id_cartas&lt;/u&gt;" style="ellipse;whiteSpace=wrap;html=1;" vertex="1" parent="1">
          <mxGeometry x="340" y="215" width="120" height="50" as="geometry" />
        </mxCell>
        <mxCell id="t3bxzwzpchBFD-Yzs4hy-115" style="rounded=0;orthogonalLoop=1;jettySize=auto;html=1;entryX=0.25;entryY=0;entryDx=0;entryDy=0;endArrow=none;endFill=0;" edge="1" parent="1" source="t3bxzwzpchBFD-Yzs4hy-107" target="t3bxzwzpchBFD-Yzs4hy-2">
          <mxGeometry relative="1" as="geometry" />
        </mxCell>
        <mxCell id="t3bxzwzpchBFD-Yzs4hy-107" value="nombre" style="ellipse;whiteSpace=wrap;html=1;" vertex="1" parent="1">
          <mxGeometry x="250" y="330" width="120" height="50" as="geometry" />
        </mxCell>
        <mxCell id="t3bxzwzpchBFD-Yzs4hy-116" style="rounded=0;orthogonalLoop=1;jettySize=auto;html=1;exitX=1;exitY=1;exitDx=0;exitDy=0;entryX=0;entryY=0;entryDx=0;entryDy=0;endArrow=none;endFill=0;" edge="1" parent="1" source="t3bxzwzpchBFD-Yzs4hy-108" target="t3bxzwzpchBFD-Yzs4hy-2">
          <mxGeometry relative="1" as="geometry" />
        </mxCell>
        <mxCell id="t3bxzwzpchBFD-Yzs4hy-108" value="rareza" style="ellipse;whiteSpace=wrap;html=1;" vertex="1" parent="1">
          <mxGeometry x="100" y="350" width="120" height="50" as="geometry" />
        </mxCell>
        <mxCell id="t3bxzwzpchBFD-Yzs4hy-109" value="ataque" style="ellipse;whiteSpace=wrap;html=1;" vertex="1" parent="1">
          <mxGeometry x="180" y="500" width="120" height="50" as="geometry" />
        </mxCell>
        <mxCell id="t3bxzwzpchBFD-Yzs4hy-117" style="rounded=0;orthogonalLoop=1;jettySize=auto;html=1;entryX=0;entryY=0.25;entryDx=0;entryDy=0;endArrow=none;endFill=0;" edge="1" parent="1" source="t3bxzwzpchBFD-Yzs4hy-110" target="t3bxzwzpchBFD-Yzs4hy-2">
          <mxGeometry relative="1" as="geometry" />
        </mxCell>
        <mxCell id="t3bxzwzpchBFD-Yzs4hy-110" value="vida" style="ellipse;whiteSpace=wrap;html=1;" vertex="1" parent="1">
          <mxGeometry x="90" y="430" width="120" height="50" as="geometry" />
        </mxCell>
        <mxCell id="t3bxzwzpchBFD-Yzs4hy-120" style="rounded=0;orthogonalLoop=1;jettySize=auto;html=1;entryX=1;entryY=1;entryDx=0;entryDy=0;endArrow=none;endFill=0;" edge="1" parent="1" source="t3bxzwzpchBFD-Yzs4hy-111" target="t3bxzwzpchBFD-Yzs4hy-2">
          <mxGeometry relative="1" as="geometry" />
        </mxCell>
        <mxCell id="t3bxzwzpchBFD-Yzs4hy-111" value="costo_mana" style="ellipse;whiteSpace=wrap;html=1;" vertex="1" parent="1">
          <mxGeometry x="670" y="690" width="120" height="50" as="geometry" />
        </mxCell>
        <mxCell id="t3bxzwzpchBFD-Yzs4hy-112" value="tipo" style="ellipse;whiteSpace=wrap;html=1;" vertex="1" parent="1">
          <mxGeometry x="650" y="620" width="120" height="50" as="geometry" />
        </mxCell>
        <mxCell id="t3bxzwzpchBFD-Yzs4hy-119" style="rounded=0;orthogonalLoop=1;jettySize=auto;html=1;endArrow=none;endFill=0;entryX=1;entryY=1;entryDx=0;entryDy=0;" edge="1" parent="1" source="t3bxzwzpchBFD-Yzs4hy-113" target="t3bxzwzpchBFD-Yzs4hy-2">
          <mxGeometry relative="1" as="geometry">
            <mxPoint x="470" y="620" as="targetPoint" />
          </mxGeometry>
        </mxCell>
        <mxCell id="t3bxzwzpchBFD-Yzs4hy-113" value="foto_carta" style="ellipse;whiteSpace=wrap;html=1;" vertex="1" parent="1">
          <mxGeometry x="480" y="720" width="120" height="50" as="geometry" />
        </mxCell>
        <mxCell id="t3bxzwzpchBFD-Yzs4hy-114" value="id_ataque" style="ellipse;whiteSpace=wrap;html=1;" vertex="1" parent="1">
          <mxGeometry x="510" y="505" width="120" height="50" as="geometry" />
        </mxCell>
        <mxCell id="t3bxzwzpchBFD-Yzs4hy-118" style="rounded=0;orthogonalLoop=1;jettySize=auto;html=1;entryX=0;entryY=0.75;entryDx=0;entryDy=0;endArrow=none;endFill=0;exitX=1;exitY=0;exitDx=0;exitDy=0;" edge="1" parent="1" source="t3bxzwzpchBFD-Yzs4hy-109" target="t3bxzwzpchBFD-Yzs4hy-2">
          <mxGeometry relative="1" as="geometry">
            <mxPoint x="220" y="468" as="sourcePoint" />
            <mxPoint x="340" y="475" as="targetPoint" />
          </mxGeometry>
        </mxCell>
        <mxCell id="t3bxzwzpchBFD-Yzs4hy-121" style="rounded=0;orthogonalLoop=1;jettySize=auto;html=1;entryX=1;entryY=1;entryDx=0;entryDy=0;endArrow=none;endFill=0;exitX=0;exitY=0;exitDx=0;exitDy=0;" edge="1" parent="1" source="t3bxzwzpchBFD-Yzs4hy-112" target="t3bxzwzpchBFD-Yzs4hy-2">
          <mxGeometry relative="1" as="geometry">
            <mxPoint x="452" y="620" as="sourcePoint" />
            <mxPoint x="460" y="520" as="targetPoint" />
          </mxGeometry>
        </mxCell>
        <mxCell id="t3bxzwzpchBFD-Yzs4hy-122" style="rounded=0;orthogonalLoop=1;jettySize=auto;html=1;entryX=1;entryY=1;entryDx=0;entryDy=0;endArrow=none;endFill=0;exitX=0;exitY=0;exitDx=0;exitDy=0;" edge="1" parent="1" source="t3bxzwzpchBFD-Yzs4hy-114" target="t3bxzwzpchBFD-Yzs4hy-2">
          <mxGeometry relative="1" as="geometry">
            <mxPoint x="527" y="587" as="sourcePoint" />
            <mxPoint x="460" y="520" as="targetPoint" />
          </mxGeometry>
        </mxCell>
        <mxCell id="t3bxzwzpchBFD-Yzs4hy-136" style="rounded=0;orthogonalLoop=1;jettySize=auto;html=1;exitX=1;exitY=0;exitDx=0;exitDy=0;entryX=0;entryY=0.5;entryDx=0;entryDy=0;endArrow=none;endFill=0;" edge="1" parent="1" source="t3bxzwzpchBFD-Yzs4hy-123" target="t3bxzwzpchBFD-Yzs4hy-11">
          <mxGeometry relative="1" as="geometry" />
        </mxCell>
        <mxCell id="t3bxzwzpchBFD-Yzs4hy-123" value="id_user_1" style="ellipse;whiteSpace=wrap;html=1;" vertex="1" parent="1">
          <mxGeometry x="-530" y="360" width="120" height="50" as="geometry" />
        </mxCell>
        <mxCell id="t3bxzwzpchBFD-Yzs4hy-137" style="rounded=0;orthogonalLoop=1;jettySize=auto;html=1;exitX=1;exitY=0;exitDx=0;exitDy=0;entryX=0;entryY=1;entryDx=0;entryDy=0;endArrow=none;endFill=0;" edge="1" parent="1" source="t3bxzwzpchBFD-Yzs4hy-124" target="t3bxzwzpchBFD-Yzs4hy-11">
          <mxGeometry relative="1" as="geometry" />
        </mxCell>
        <mxCell id="t3bxzwzpchBFD-Yzs4hy-124" value="id_user_2" style="ellipse;whiteSpace=wrap;html=1;" vertex="1" parent="1">
          <mxGeometry x="-490" y="430" width="120" height="50" as="geometry" />
        </mxCell>
        <mxCell id="t3bxzwzpchBFD-Yzs4hy-135" style="rounded=0;orthogonalLoop=1;jettySize=auto;html=1;entryX=0;entryY=0.25;entryDx=0;entryDy=0;endArrow=none;endFill=0;" edge="1" parent="1" source="t3bxzwzpchBFD-Yzs4hy-125" target="t3bxzwzpchBFD-Yzs4hy-11">
          <mxGeometry relative="1" as="geometry" />
        </mxCell>
        <mxCell id="t3bxzwzpchBFD-Yzs4hy-125" value="mana_user_1" style="ellipse;whiteSpace=wrap;html=1;" vertex="1" parent="1">
          <mxGeometry x="-533" y="290" width="120" height="50" as="geometry" />
        </mxCell>
        <mxCell id="t3bxzwzpchBFD-Yzs4hy-134" style="rounded=0;orthogonalLoop=1;jettySize=auto;html=1;exitX=1;exitY=1;exitDx=0;exitDy=0;entryX=0;entryY=0;entryDx=0;entryDy=0;endArrow=none;endFill=0;" edge="1" parent="1" source="t3bxzwzpchBFD-Yzs4hy-126" target="t3bxzwzpchBFD-Yzs4hy-11">
          <mxGeometry relative="1" as="geometry" />
        </mxCell>
        <mxCell id="t3bxzwzpchBFD-Yzs4hy-126" value="mana_user_2" style="ellipse;whiteSpace=wrap;html=1;" vertex="1" parent="1">
          <mxGeometry x="-460" y="230" width="120" height="50" as="geometry" />
        </mxCell>
        <mxCell id="t3bxzwzpchBFD-Yzs4hy-128" style="rounded=0;orthogonalLoop=1;jettySize=auto;html=1;entryX=0.5;entryY=0;entryDx=0;entryDy=0;endArrow=none;endFill=0;" edge="1" parent="1" source="t3bxzwzpchBFD-Yzs4hy-127" target="t3bxzwzpchBFD-Yzs4hy-11">
          <mxGeometry relative="1" as="geometry" />
        </mxCell>
        <mxCell id="t3bxzwzpchBFD-Yzs4hy-127" value="turno" style="ellipse;whiteSpace=wrap;html=1;" vertex="1" parent="1">
          <mxGeometry x="-320" y="210" width="120" height="50" as="geometry" />
        </mxCell>
        <mxCell id="t3bxzwzpchBFD-Yzs4hy-130" style="rounded=0;orthogonalLoop=1;jettySize=auto;html=1;entryX=0.5;entryY=0;entryDx=0;entryDy=0;endArrow=none;endFill=0;" edge="1" parent="1" source="t3bxzwzpchBFD-Yzs4hy-129" target="t3bxzwzpchBFD-Yzs4hy-12">
          <mxGeometry relative="1" as="geometry" />
        </mxCell>
        <mxCell id="t3bxzwzpchBFD-Yzs4hy-131" style="rounded=0;orthogonalLoop=1;jettySize=auto;html=1;entryX=0.25;entryY=1;entryDx=0;entryDy=0;endArrow=none;endFill=0;" edge="1" parent="1" source="t3bxzwzpchBFD-Yzs4hy-129" target="t3bxzwzpchBFD-Yzs4hy-1">
          <mxGeometry relative="1" as="geometry" />
        </mxCell>
        <mxCell id="t3bxzwzpchBFD-Yzs4hy-129" value="Jugar" style="rhombus;whiteSpace=wrap;html=1;" vertex="1" parent="1">
          <mxGeometry x="-60" y="285" width="80" height="80" as="geometry" />
        </mxCell>
        <mxCell id="t3bxzwzpchBFD-Yzs4hy-132" value="N" style="text;html=1;align=center;verticalAlign=middle;whiteSpace=wrap;rounded=0;" vertex="1" parent="1">
          <mxGeometry x="60" y="170" width="60" height="30" as="geometry" />
        </mxCell>
        <mxCell id="t3bxzwzpchBFD-Yzs4hy-133" value="N" style="text;html=1;align=center;verticalAlign=middle;whiteSpace=wrap;rounded=0;" vertex="1" parent="1">
          <mxGeometry x="-80" y="515" width="60" height="30" as="geometry" />
        </mxCell>
        <mxCell id="t3bxzwzpchBFD-Yzs4hy-139" style="rounded=0;orthogonalLoop=1;jettySize=auto;html=1;exitX=0;exitY=0;exitDx=0;exitDy=0;entryX=1;entryY=1;entryDx=0;entryDy=0;endArrow=none;endFill=0;" edge="1" parent="1" source="t3bxzwzpchBFD-Yzs4hy-138" target="t3bxzwzpchBFD-Yzs4hy-11">
          <mxGeometry relative="1" as="geometry" />
        </mxCell>
        <mxCell id="t3bxzwzpchBFD-Yzs4hy-138" value="&lt;u&gt;id_combate&lt;/u&gt;" style="ellipse;whiteSpace=wrap;html=1;" vertex="1" parent="1">
          <mxGeometry x="-190" y="390" width="120" height="50" as="geometry" />
        </mxCell>
        <mxCell id="t3bxzwzpchBFD-Yzs4hy-141" style="rounded=0;orthogonalLoop=1;jettySize=auto;html=1;exitX=1;exitY=0;exitDx=0;exitDy=0;entryX=0;entryY=1;entryDx=0;entryDy=0;endArrow=none;endFill=0;" edge="1" parent="1" source="t3bxzwzpchBFD-Yzs4hy-140" target="t3bxzwzpchBFD-Yzs4hy-12">
          <mxGeometry relative="1" as="geometry" />
        </mxCell>
        <mxCell id="t3bxzwzpchBFD-Yzs4hy-140" value="&lt;u&gt;id_carta_combate&lt;/u&gt;" style="ellipse;whiteSpace=wrap;html=1;" vertex="1" parent="1">
          <mxGeometry x="-400" y="600" width="120" height="50" as="geometry" />
        </mxCell>
        <mxCell id="t3bxzwzpchBFD-Yzs4hy-142" value="id_user" style="ellipse;whiteSpace=wrap;html=1;" vertex="1" parent="1">
          <mxGeometry x="-360" y="720" width="120" height="50" as="geometry" />
        </mxCell>
        <mxCell id="t3bxzwzpchBFD-Yzs4hy-152" style="rounded=0;orthogonalLoop=1;jettySize=auto;html=1;entryX=0;entryY=1;entryDx=0;entryDy=0;endArrow=none;endFill=0;" edge="1" parent="1" source="t3bxzwzpchBFD-Yzs4hy-143" target="t3bxzwzpchBFD-Yzs4hy-12">
          <mxGeometry relative="1" as="geometry" />
        </mxCell>
        <mxCell id="t3bxzwzpchBFD-Yzs4hy-143" value="id_combate" style="ellipse;whiteSpace=wrap;html=1;" vertex="1" parent="1">
          <mxGeometry x="-440" y="670" width="120" height="50" as="geometry" />
        </mxCell>
        <mxCell id="t3bxzwzpchBFD-Yzs4hy-144" value="id_carta" style="ellipse;whiteSpace=wrap;html=1;" vertex="1" parent="1">
          <mxGeometry x="-310" y="780" width="120" height="50" as="geometry" />
        </mxCell>
        <mxCell id="t3bxzwzpchBFD-Yzs4hy-145" value="ataque" style="ellipse;whiteSpace=wrap;html=1;" vertex="1" parent="1">
          <mxGeometry x="-220" y="830" width="120" height="50" as="geometry" />
        </mxCell>
        <mxCell id="t3bxzwzpchBFD-Yzs4hy-146" value="vida" style="ellipse;whiteSpace=wrap;html=1;" vertex="1" parent="1">
          <mxGeometry x="-90" y="840" width="120" height="50" as="geometry" />
        </mxCell>
        <mxCell id="t3bxzwzpchBFD-Yzs4hy-147" value="ataque_especial" style="ellipse;whiteSpace=wrap;html=1;" vertex="1" parent="1">
          <mxGeometry x="10" y="800" width="120" height="50" as="geometry" />
        </mxCell>
        <mxCell id="t3bxzwzpchBFD-Yzs4hy-148" value="efecto_secundario" style="ellipse;whiteSpace=wrap;html=1;" vertex="1" parent="1">
          <mxGeometry x="120" y="770" width="120" height="50" as="geometry" />
        </mxCell>
        <mxCell id="t3bxzwzpchBFD-Yzs4hy-149" value="duracion_efecto" style="ellipse;whiteSpace=wrap;html=1;" vertex="1" parent="1">
          <mxGeometry x="230" y="740" width="120" height="50" as="geometry" />
        </mxCell>
        <mxCell id="t3bxzwzpchBFD-Yzs4hy-150" value="cambio_estadistica" style="ellipse;whiteSpace=wrap;html=1;" vertex="1" parent="1">
          <mxGeometry x="210" y="680" width="120" height="50" as="geometry" />
        </mxCell>
        <mxCell id="t3bxzwzpchBFD-Yzs4hy-151" value="estadistica_efecto" style="ellipse;whiteSpace=wrap;html=1;" vertex="1" parent="1">
          <mxGeometry x="200" y="620" width="120" height="50" as="geometry" />
        </mxCell>
        <mxCell id="t3bxzwzpchBFD-Yzs4hy-153" style="rounded=0;orthogonalLoop=1;jettySize=auto;html=1;entryX=0;entryY=1;entryDx=0;entryDy=0;endArrow=none;endFill=0;exitX=0.5;exitY=0;exitDx=0;exitDy=0;" edge="1" parent="1" source="t3bxzwzpchBFD-Yzs4hy-142" target="t3bxzwzpchBFD-Yzs4hy-12">
          <mxGeometry relative="1" as="geometry">
            <mxPoint x="-326" y="688" as="sourcePoint" />
            <mxPoint x="-120" y="610" as="targetPoint" />
          </mxGeometry>
        </mxCell>
        <mxCell id="t3bxzwzpchBFD-Yzs4hy-154" style="rounded=0;orthogonalLoop=1;jettySize=auto;html=1;entryX=0.25;entryY=1;entryDx=0;entryDy=0;endArrow=none;endFill=0;exitX=0.5;exitY=0;exitDx=0;exitDy=0;" edge="1" parent="1" source="t3bxzwzpchBFD-Yzs4hy-144" target="t3bxzwzpchBFD-Yzs4hy-12">
          <mxGeometry relative="1" as="geometry">
            <mxPoint x="-290" y="730" as="sourcePoint" />
            <mxPoint x="-120" y="610" as="targetPoint" />
          </mxGeometry>
        </mxCell>
        <mxCell id="t3bxzwzpchBFD-Yzs4hy-155" style="rounded=0;orthogonalLoop=1;jettySize=auto;html=1;entryX=0.25;entryY=1;entryDx=0;entryDy=0;endArrow=none;endFill=0;exitX=0.5;exitY=0;exitDx=0;exitDy=0;" edge="1" parent="1" source="t3bxzwzpchBFD-Yzs4hy-145" target="t3bxzwzpchBFD-Yzs4hy-12">
          <mxGeometry relative="1" as="geometry">
            <mxPoint x="-240" y="790" as="sourcePoint" />
            <mxPoint x="-90" y="610" as="targetPoint" />
          </mxGeometry>
        </mxCell>
        <mxCell id="t3bxzwzpchBFD-Yzs4hy-156" style="rounded=0;orthogonalLoop=1;jettySize=auto;html=1;entryX=0.5;entryY=1;entryDx=0;entryDy=0;endArrow=none;endFill=0;exitX=0.5;exitY=0;exitDx=0;exitDy=0;" edge="1" parent="1" source="t3bxzwzpchBFD-Yzs4hy-146" target="t3bxzwzpchBFD-Yzs4hy-12">
          <mxGeometry relative="1" as="geometry">
            <mxPoint x="-150" y="840" as="sourcePoint" />
            <mxPoint x="-90" y="610" as="targetPoint" />
          </mxGeometry>
        </mxCell>
        <mxCell id="t3bxzwzpchBFD-Yzs4hy-157" style="rounded=0;orthogonalLoop=1;jettySize=auto;html=1;entryX=0.5;entryY=1;entryDx=0;entryDy=0;endArrow=none;endFill=0;exitX=0;exitY=0;exitDx=0;exitDy=0;" edge="1" parent="1" source="t3bxzwzpchBFD-Yzs4hy-147" target="t3bxzwzpchBFD-Yzs4hy-12">
          <mxGeometry relative="1" as="geometry">
            <mxPoint x="-20" y="850" as="sourcePoint" />
            <mxPoint x="-60" y="610" as="targetPoint" />
          </mxGeometry>
        </mxCell>
        <mxCell id="t3bxzwzpchBFD-Yzs4hy-158" style="rounded=0;orthogonalLoop=1;jettySize=auto;html=1;entryX=0.75;entryY=1;entryDx=0;entryDy=0;endArrow=none;endFill=0;exitX=0;exitY=0;exitDx=0;exitDy=0;" edge="1" parent="1" source="t3bxzwzpchBFD-Yzs4hy-148" target="t3bxzwzpchBFD-Yzs4hy-12">
          <mxGeometry relative="1" as="geometry">
            <mxPoint x="37" y="817" as="sourcePoint" />
            <mxPoint x="-60" y="610" as="targetPoint" />
          </mxGeometry>
        </mxCell>
        <mxCell id="t3bxzwzpchBFD-Yzs4hy-159" style="rounded=0;orthogonalLoop=1;jettySize=auto;html=1;entryX=0.75;entryY=1;entryDx=0;entryDy=0;endArrow=none;endFill=0;exitX=0;exitY=0.5;exitDx=0;exitDy=0;" edge="1" parent="1" source="t3bxzwzpchBFD-Yzs4hy-149" target="t3bxzwzpchBFD-Yzs4hy-12">
          <mxGeometry relative="1" as="geometry">
            <mxPoint x="147" y="787" as="sourcePoint" />
            <mxPoint x="-30" y="610" as="targetPoint" />
          </mxGeometry>
        </mxCell>
        <mxCell id="t3bxzwzpchBFD-Yzs4hy-160" style="rounded=0;orthogonalLoop=1;jettySize=auto;html=1;entryX=0.75;entryY=1;entryDx=0;entryDy=0;endArrow=none;endFill=0;exitX=0;exitY=0.5;exitDx=0;exitDy=0;" edge="1" parent="1" source="t3bxzwzpchBFD-Yzs4hy-150" target="t3bxzwzpchBFD-Yzs4hy-12">
          <mxGeometry relative="1" as="geometry">
            <mxPoint x="240" y="775" as="sourcePoint" />
            <mxPoint y="610" as="targetPoint" />
          </mxGeometry>
        </mxCell>
        <mxCell id="t3bxzwzpchBFD-Yzs4hy-161" style="rounded=0;orthogonalLoop=1;jettySize=auto;html=1;entryX=0.75;entryY=1;entryDx=0;entryDy=0;endArrow=none;endFill=0;exitX=0;exitY=1;exitDx=0;exitDy=0;" edge="1" parent="1" source="t3bxzwzpchBFD-Yzs4hy-151" target="t3bxzwzpchBFD-Yzs4hy-12">
          <mxGeometry relative="1" as="geometry">
            <mxPoint x="220" y="715" as="sourcePoint" />
            <mxPoint x="-30" y="610" as="targetPoint" />
          </mxGeometry>
        </mxCell>
        <mxCell id="t3bxzwzpchBFD-Yzs4hy-163" style="rounded=0;orthogonalLoop=1;jettySize=auto;html=1;entryX=1;entryY=0;entryDx=0;entryDy=0;endArrow=none;endFill=0;" edge="1" parent="1" source="t3bxzwzpchBFD-Yzs4hy-162" target="t3bxzwzpchBFD-Yzs4hy-8">
          <mxGeometry relative="1" as="geometry" />
        </mxCell>
        <mxCell id="t3bxzwzpchBFD-Yzs4hy-162" value="&lt;u&gt;id_carta_mercado&lt;/u&gt;" style="ellipse;whiteSpace=wrap;html=1;" vertex="1" parent="1">
          <mxGeometry x="-473" y="20" width="120" height="50" as="geometry" />
        </mxCell>
        <mxCell id="t3bxzwzpchBFD-Yzs4hy-167" style="rounded=0;orthogonalLoop=1;jettySize=auto;html=1;entryX=0.5;entryY=0;entryDx=0;entryDy=0;endArrow=none;endFill=0;" edge="1" parent="1" source="t3bxzwzpchBFD-Yzs4hy-164" target="t3bxzwzpchBFD-Yzs4hy-8">
          <mxGeometry relative="1" as="geometry" />
        </mxCell>
        <mxCell id="t3bxzwzpchBFD-Yzs4hy-164" value="id_carta" style="ellipse;whiteSpace=wrap;html=1;" vertex="1" parent="1">
          <mxGeometry x="-580" y="-25" width="120" height="50" as="geometry" />
        </mxCell>
        <mxCell id="t3bxzwzpchBFD-Yzs4hy-168" style="rounded=0;orthogonalLoop=1;jettySize=auto;html=1;entryX=0.25;entryY=0;entryDx=0;entryDy=0;endArrow=none;endFill=0;" edge="1" parent="1" source="t3bxzwzpchBFD-Yzs4hy-165" target="t3bxzwzpchBFD-Yzs4hy-8">
          <mxGeometry relative="1" as="geometry" />
        </mxCell>
        <mxCell id="t3bxzwzpchBFD-Yzs4hy-165" value="id_user" style="ellipse;whiteSpace=wrap;html=1;" vertex="1" parent="1">
          <mxGeometry x="-710" y="-30" width="120" height="50" as="geometry" />
        </mxCell>
        <mxCell id="t3bxzwzpchBFD-Yzs4hy-169" style="rounded=0;orthogonalLoop=1;jettySize=auto;html=1;entryX=0;entryY=0;entryDx=0;entryDy=0;endArrow=none;endFill=0;" edge="1" parent="1" source="t3bxzwzpchBFD-Yzs4hy-166" target="t3bxzwzpchBFD-Yzs4hy-8">
          <mxGeometry relative="1" as="geometry" />
        </mxCell>
        <mxCell id="t3bxzwzpchBFD-Yzs4hy-166" value="precio" style="ellipse;whiteSpace=wrap;html=1;" vertex="1" parent="1">
          <mxGeometry x="-800" y="25" width="120" height="50" as="geometry" />
        </mxCell>
        <mxCell id="t3bxzwzpchBFD-Yzs4hy-172" style="edgeStyle=orthogonalEdgeStyle;rounded=0;orthogonalLoop=1;jettySize=auto;html=1;entryX=0.868;entryY=1.002;entryDx=0;entryDy=0;entryPerimeter=0;endArrow=none;endFill=0;" edge="1" parent="1" source="t3bxzwzpchBFD-Yzs4hy-170" target="t3bxzwzpchBFD-Yzs4hy-2">
          <mxGeometry relative="1" as="geometry">
            <mxPoint x="432.28585379464283" y="800" as="targetPoint" />
          </mxGeometry>
        </mxCell>
        <mxCell id="t3bxzwzpchBFD-Yzs4hy-170" value="Esta" style="rhombus;whiteSpace=wrap;html=1;" vertex="1" parent="1">
          <mxGeometry x="-690" y="920" width="80" height="80" as="geometry" />
        </mxCell>
        <mxCell id="t3bxzwzpchBFD-Yzs4hy-173" value="N" style="text;html=1;align=center;verticalAlign=middle;whiteSpace=wrap;rounded=0;" vertex="1" parent="1">
          <mxGeometry x="390" y="505" width="60" height="30" as="geometry" />
        </mxCell>
        <mxCell id="t3bxzwzpchBFD-Yzs4hy-174" value="1" style="text;html=1;align=center;verticalAlign=middle;whiteSpace=wrap;rounded=0;" vertex="1" parent="1">
          <mxGeometry x="-570" y="100" width="60" height="30" as="geometry" />
        </mxCell>
        <mxCell id="t3bxzwzpchBFD-Yzs4hy-177" style="edgeStyle=orthogonalEdgeStyle;rounded=0;orthogonalLoop=1;jettySize=auto;html=1;entryX=1;entryY=0;entryDx=0;entryDy=0;endArrow=none;endFill=0;" edge="1" parent="1" source="t3bxzwzpchBFD-Yzs4hy-175" target="t3bxzwzpchBFD-Yzs4hy-2">
          <mxGeometry relative="1" as="geometry">
            <mxPoint x="530" y="370" as="targetPoint" />
            <Array as="points">
              <mxPoint x="1260" y="240" />
              <mxPoint x="490" y="240" />
              <mxPoint x="490" y="450" />
            </Array>
          </mxGeometry>
        </mxCell>
        <mxCell id="t3bxzwzpchBFD-Yzs4hy-175" value="Estan" style="rhombus;whiteSpace=wrap;html=1;" vertex="1" parent="1">
          <mxGeometry x="1220" y="-45" width="80" height="80" as="geometry" />
        </mxCell>
        <mxCell id="t3bxzwzpchBFD-Yzs4hy-178" value="N" style="text;html=1;align=center;verticalAlign=middle;whiteSpace=wrap;rounded=0;" vertex="1" parent="1">
          <mxGeometry x="170" y="-330" width="60" height="30" as="geometry" />
        </mxCell>
        <mxCell id="t3bxzwzpchBFD-Yzs4hy-179" value="N" style="text;html=1;align=center;verticalAlign=middle;whiteSpace=wrap;rounded=0;" vertex="1" parent="1">
          <mxGeometry x="434" y="425" width="60" height="30" as="geometry" />
        </mxCell>
      </root>
    </mxGraphModel>
  </diagram>
</mxfile>
